Coordinates
version=1
nRows=29
nColumns=22
inDegrees=yes

Units are S.I. units (second, meters, Newtons, ...)
If the header above contains a line with 'inDegrees', this indicates whether rotational values are in degrees (yes) or radians (no).

endheader
time	pelvis_tilt	pelvis_list	pelvis_rotation	pelvis_tx	pelvis_ty	pelvis_tz	hip_flexion_r	hip_adduction_r	hip_rotation_r	knee_angle_r	ankle_angle_r	subtalar_angle_r	hip_flexion_l	hip_adduction_l	hip_rotation_l	knee_angle_l	ankle_angle_l	subtalar_angle_l	lumbar_extension	lumbar_bending	lumbar_rotation
      2.94000000	     -8.29778792	      1.70618569	     -6.38929293	      0.27926827	      0.97888565	      0.24431781	     27.95519569	     -5.56219343	     -3.33136071	    -54.37938015	     15.45564559	     -0.83882486	     21.64522827	      5.70783046	      0.07209557	    -24.17928265	     16.98475771	     -6.11872446	     -0.03749354	     -1.16137332	     -0.58960787
      2.95000000	     -8.30624751	      1.68498072	     -6.37992857	      0.28467130	      0.97917337	      0.24469131	     28.72727243	     -5.46960677	     -3.19726797	    -53.13610388	     15.92091204	     -0.84846133	     21.16060892	      5.69308656	      0.05352087	    -23.92114355	     17.26371933	     -6.14019528	     -0.13937596	     -1.16308349	     -0.79995853
      2.96000000	     -8.24446664	      1.64007012	     -6.38479304	      0.29009613	      0.97952320	      0.24512893	     29.39442367	     -5.34545279	     -3.05830320	    -51.82759230	     16.32214411	     -0.73690950	     20.60946790	      5.64941932	     -0.00468400	    -23.68806752	     17.57107274	     -6.19826618	     -0.33167105	     -1.14121065	     -1.01377075
      2.97000000	     -8.25883283	      1.62884884	     -6.38458372	      0.29546980	      0.97967503	      0.24558122	     30.14439194	     -5.24045363	     -2.91170008	    -50.49941815	     16.64061749	     -0.67879032	     20.14925371	      5.63922210	     -0.01524134	    -23.46062436	     17.85354419	     -6.20930784	     -0.43213372	     -1.15457325	     -1.18692211
      2.98000000	     -8.22455366	      1.58004117	     -6.39516931	      0.30086971	      0.97984606	      0.24605427	     30.80806703	     -5.10604862	     -2.80036545	    -49.12098340	     16.92062813	     -0.45234105	     19.65599910	      5.58189072	     -0.09689742	    -23.28040364	     18.18568586	     -6.23893605	     -0.59930053	     -1.12047569	     -1.34727794
      2.99000000	     -8.22243740	      1.55550034	     -6.40123310	      0.30625081	      0.97989938	      0.24651283	     31.49760098	     -4.99583056	     -2.70364977	    -47.72466482	     17.13523943	     -0.22811205	     19.19817292	      5.55828479	     -0.11594772	    -23.09696496	     18.48697164	     -6.25513392	     -0.72852203	     -1.10815512	     -1.48963015
      3.00000000	     -8.23737710	      1.53363163	     -6.39408071	      0.31162649	      0.97985630	      0.24693901	     32.18443496	     -4.89862718	     -2.64882668	    -46.30462700	     17.30050253	     -0.00778140	     18.76976144	      5.54044567	     -0.13194036	    -22.93184594	     18.78845552	     -6.27061425	     -0.84323356	     -1.09076959	     -1.61393436
      3.01000000	     -8.26133097	      1.52002954	     -6.38882384	      0.31702175	      0.97973311	      0.24736064	     32.86269631	     -4.81675036	     -2.63346785	    -44.86725278	     17.41774980	      0.22230020	     18.35354452	      5.53268877	     -0.13701876	    -22.77477636	     19.08143364	     -6.28811934	     -0.94657605	     -1.07653159	     -1.72416907
      3.02000000	     -8.29684709	      1.51744255	     -6.38140871	      0.32245606	      0.97952499	      0.24777852	     33.53122153	     -4.75202214	     -2.65963443	    -43.41360199	     17.48734912	      0.41952748	     17.94803081	      5.53639174	     -0.15099987	    -22.61625286	     19.38153845	     -6.30739463	     -1.03369768	     -1.07025180	     -1.80779529
      3.03000000	     -8.32579756	      1.52939730	     -6.37495578	      0.32792888	      0.97927729	      0.24820127	     34.16907247	     -4.69897998	     -2.69283460	    -41.94509916	     17.50172505	      0.68108301	     17.52917091	      5.55753178	     -0.16110140	    -22.44747535	     19.64974522	     -6.33101865	     -1.12833983	     -1.07409238	     -1.88390273
      3.04000000	     -8.36379564	      1.55162614	     -6.37664765	      0.33347053	      0.97895033	      0.24864907	     34.79387099	     -4.65566632	     -2.76265227	    -40.47001072	     17.43254503	      0.86998043	     17.11512888	      5.58388143	     -0.19979394	    -22.27545521	     19.95054792	     -6.34859144	     -1.20461656	     -1.08528813	     -1.92119842
      3.05000000	     -8.38810958	      1.58246525	     -6.38314100	      0.33907943	      0.97859900	      0.24914198	     35.37333100	     -4.61114917	     -2.83274172	    -38.98320732	     17.30009032	      1.12035167	     16.67530256	      5.61725395	     -0.24673299	    -22.08830267	     20.23608617	     -6.36041248	     -1.29444613	     -1.10494029	     -1.94810074
      3.06000000	     -8.40294715	      1.62627063	     -6.40031241	      0.34477000	      0.97820765	      0.24968273	     35.91470724	     -4.56748141	     -2.89981731	    -37.49285068	     17.10382402	      1.41325290	     16.21506796	      5.66096786	     -0.30671109	    -21.88847041	     20.52531394	     -6.35742501	     -1.38836066	     -1.13669716	     -1.95373210
      3.07000000	     -8.39685774	      1.68084639	     -6.42750954	      0.35056376	      0.97779791	      0.25027920	     36.40044663	     -4.52072485	     -2.95153747	    -35.99942517	     16.88754988	      1.80634369	     15.71682976	      5.71444829	     -0.37105321	    -21.66817245	     20.82160975	     -6.32290768	     -1.49897568	     -1.18172980	     -1.94072880
      3.08000000	     -8.39038455	      1.74275177	     -6.46379355	      0.35644809	      0.97733046	      0.25092918	     36.85714160	     -4.46784732	     -3.00017984	    -34.51282895	     16.58097069	      2.20284994	     15.21639884	      5.76853411	     -0.46071581	    -21.45223170	     21.13322493	     -6.26178960	     -1.60306665	     -1.23309848	     -1.91111978
      3.09000000	     -8.38218918	      1.80914394	     -6.50419745	      0.36242581	      0.97680484	      0.25161507	     37.28332691	     -4.41142328	     -3.05320838	    -33.03952306	     16.19637714	      2.59715932	     14.71846023	      5.82025182	     -0.58749596	    -21.25136457	     21.44493828	     -6.18309575	     -1.70252076	     -1.28338709	     -1.87447738
      3.10000000	     -8.34894181	      1.87947716	     -6.54289649	      0.36851752	      0.97626264	      0.25234270	     37.64491180	     -4.35207940	     -3.09124256	    -31.57482938	     15.84304290	      3.10628584	     14.18860611	      5.87894017	     -0.69818730	    -21.05277634	     21.77319923	     -6.04600657	     -1.82589403	     -1.34359606	     -1.82795502
      3.11000000	     -8.31181432	      1.96386694	     -6.56101146	      0.37471602	      0.97565515	      0.25303477	     37.97163977	     -4.31461992	     -3.12525536	    -30.13599816	     15.55087345	      3.71572229	     13.65837633	      5.96195600	     -0.76987218	    -20.86873453	     22.11562372	     -5.85108440	     -1.94647069	     -1.41219654	     -1.79535569
      3.12000000	     -8.29495881	      2.03908506	     -6.54814903	      0.38097886	      0.97495470	      0.25371171	     38.28607163	     -4.28150869	     -3.19586062	    -28.72310363	     15.23631020	      4.30533723	     13.17383023	      6.03311357	     -0.84025490	    -20.73893355	     22.46128214	     -5.66085850	     -2.04388316	     -1.46593561	     -1.78533035
      3.13000000	     -8.30318574	      2.09306198	     -6.49092887	      0.38731652	      0.97416137	      0.25433385	     38.58659550	     -4.25425028	     -3.33202703	    -27.33682577	     14.91002851	      4.84789032	     12.73891744	      6.08337649	     -0.89403932	    -20.66486311	     22.80799055	     -5.49617722	     -2.11307475	     -1.48570930	     -1.81260827
      3.14000000	     -8.31544050	      2.14524935	     -6.37771636	      0.39372043	      0.97330436	      0.25488622	     38.85362938	     -4.25587696	     -3.49491390	    -25.98670882	     14.68169731	      5.49874850	     12.32509031	      6.14541204	     -0.86620841	    -20.63198979	     23.17900196	     -5.29756335	     -2.18038473	     -1.50119202	     -1.88380685
      3.15000000	     -8.34533584	      2.20810570	     -6.22019701	      0.40017196	      0.97235046	      0.25538930	     39.11242797	     -4.28780479	     -3.65475894	    -24.68871238	     14.55382332	      6.22716692	     11.95622998	      6.22563875	     -0.78086541	    -20.65547689	     23.55729214	     -5.09509069	     -2.22938474	     -1.52554381	     -1.97885597
      3.16000000	     -8.39961189	      2.24347492	     -6.01184525	      0.40670729	      0.97132418	      0.25584038	     39.35585768	     -4.32675535	     -3.89428365	    -23.43743619	     14.40665952	      6.87397422	     11.62731617	      6.27977626	     -0.65915268	    -20.72250395	     23.94463229	     -4.93948857	     -2.24793469	     -1.51109960	     -2.11456637
      3.17000000	     -8.46201532	      2.26567837	     -5.76431367	      0.41332602	      0.97024699	      0.25628453	     39.57518524	     -4.37586628	     -4.17650798	    -22.25072104	     14.28183326	      7.48705105	     11.31674433	      6.32251275	     -0.49537719	    -20.82398059	     24.33289204	     -4.80239104	     -2.25788598	     -1.48281828	     -2.27877024
      3.18000000	     -8.52901175	      2.27472745	     -5.48506569	      0.42005825	      0.96912901	      0.25670400	     39.76863485	     -4.43422891	     -4.51500643	    -21.13992259	     14.14323946	      7.93614557	     11.01432426	      6.35549839	     -0.29777905	    -20.94971733	     24.71577797	     -4.70668340	     -2.25453989	     -1.43070528	     -2.46701293
      3.19000000	     -8.57851001	      2.28982216	     -5.18956333	      0.42689022	      0.96799430	      0.25715540	     39.92572763	     -4.50732640	     -4.86382156	    -20.12691046	     14.05603039	      8.41885762	     10.69445426	      6.39830525	     -0.06546523	    -21.09335209	     25.09675406	     -4.59806788	     -2.26540325	     -1.39384130	     -2.65460815
      3.20000000	     -8.61037786	      2.31589788	     -4.89741385	      0.43385308	      0.96684963	      0.25766290	     40.05557999	     -4.58743843	     -5.21597944	    -19.23811380	     13.98959371	      8.85402499	     10.34952608	      6.45078890	      0.17292810	    -21.24091443	     25.46436071	     -4.49399100	     -2.28753886	     -1.37041018	     -2.82908313
      3.21000000	     -8.60629740	      2.35805355	     -4.62745323	      0.44095267	      0.96572389	      0.25827969	     40.14696210	     -4.66628604	     -5.55274444	    -18.49084534	     13.95209426	      9.31112990	      9.95567432	      6.51481432	      0.39767477	    -21.38543948	     25.82232590	     -4.37141688	     -2.34086590	     -1.37693506	     -2.95921195
      3.22000000	     -8.60613997	      2.40963704	     -4.35388990	      0.44821536	      0.96456893	      0.25895611	     40.24134710	     -4.75182800	     -5.93191385	    -17.90283600	     13.88240161	      9.49268043	      9.55406362	      6.58408835	      0.63210491	    -21.52781080	     26.13949989	     -4.29612665	     -2.37115381	     -1.39323863	     -3.09814561
